<svg xmlns="http://www.w3.org/2000/svg" version="1.0" preserveAspectRatio="xMidYMid meet" viewBox="20 161.7 460 200.6">
<g transform="translate(0.000000,512.000000) scale(0.100000,-0.100000)" fill="#000000" stroke="none">
<path d="M1432 3485 c-397 -72 -702 -354 -802 -742 l-11 -43 -209 0 -210 0 0 -200 0 -200 210 0 209 0 11 -42 c31 -121 65 -197 137 -308 134 -205 348 -357 595 -422 79 -20 109 -22 561 -25 l477 -4 0 200 0 201 -400 0 -400 0 0 200 0 200 400 0 400 0 0 200 0 200 -400 0 -400 0 0 200 0 200 400 0 400 0 0 200 0 200 -447 -1 c-324 -1 -468 -4 -521 -14z"/>
<path d="M3400 3301 l0 -201 -400 0 -400 0 0 -200 0 -200 400 0 400 0 0 -200 0 -200 -400 0 -400 0 0 -200 0 -200 400 0 400 0 0 -201 0 -202 78 7 c426 36 788 342 892 754 l11 42 209 0 210 0 0 200 0 200 -210 0 -209 0 -11 43 c-51 202 -184 410 -343 535 -165 129 -346 201 -552 219 l-75 6 0 -202z"/>
</g>
</svg>