<svg xmlns:inkscape="http://www.inkscape.org/namespaces/inkscape" xmlns:sodipodi="http://sodipodi.sourceforge.net/DTD/sodipodi-0.dtd" xmlns="http://www.w3.org/2000/svg" xmlns:svg="http://www.w3.org/2000/svg" xml:space="preserve" version="1.1" id="svg12" sodipodi:docname="LogoAPP2.svg" inkscape:version="1.1.2 (b8e25be833, 2022-02-05)" viewBox="14.74 19.42 1011.02 221.77"><defs id="defs16"/><sodipodi:namedview id="namedview14" pagecolor="#ffffff" bordercolor="#666666" borderopacity="1.0" inkscape:pageshadow="2" inkscape:pageopacity="0.0" inkscape:pagecheckerboard="0" showgrid="false" inkscape:zoom="1.1592593" inkscape:cx="573.21086" inkscape:cy="128.09904" inkscape:window-width="1920" inkscape:window-height="991" inkscape:window-x="-9" inkscape:window-y="-9" inkscape:window-maximized="1" inkscape:current-layer="svg12"/><path d="m 297.16856,19.423463 c -15.035,0 -27.223,13.497 -27.223,30.147 0,4.176 0.768,8.155 2.155,11.772 l -57.025,63.150997 a 24.884,24.884 0 0 0 -10.63,-2.387 c -3.773,0 -7.366,0.851 -10.632,2.387 l -34.064,-37.722997 a 32.85,32.85 0 0 0 2.155,-11.773 c 0,-16.65 -12.188,-30.147 -27.223,-30.147 -15.034,0 -27.222,13.498 -27.222,30.147 0,4.177 0.768,8.155 2.155,11.772 L 52.588562,149.91946 a 24.884,24.884 0 0 0 -10.63,-2.386 c -15.035,0 -27.223,13.497 -27.223,30.146 0,16.65 12.188,30.147 27.222,30.147 15.034,0 27.222,-13.497 27.222,-30.147 a 32.85,32.85 0 0 0 -2.154,-11.772 l 57.024998,-63.15 a 24.884,24.884 0 0 0 10.631,2.386 c 3.772,0 7.365,-0.85 10.63,-2.386 l 34.065,37.724 a 32.85,32.85 0 0 0 -2.154,11.772 c 0,16.65 12.188,30.147 27.222,30.147 15.034,0 27.222,-13.498 27.222,-30.147 a 32.85,32.85 0 0 0 -2.154,-11.772 l 57.025,-63.151997 a 24.884,24.884 0 0 0 10.63,2.387 c 15.035,0 27.223,-13.498 27.223,-30.147 0,-16.65 -12.188,-30.146 -27.222,-30.146 z" id="path2"/><text xml:space="preserve" style="font-style:normal;font-weight:400;font-size:152.785px;line-height:1.75;font-family:sans-serif;fill:#000000;fill-opacity:1;stroke:none;stroke-width:0.716183" x="322.02463" y="188.50377" transform="scale(0.95026033,1.0523432)" id="text6"><tspan x="322.02463" y="188.50377" style="font-style:normal;font-variant:normal;font-weight:400;font-stretch:normal;font-size:152.785px;font-family:Calibri;-inkscape-font-specification:Calibri;stroke-width:0.716183" id="tspan4">Integra</tspan></text><text xml:space="preserve" style="font-size:171.884px;line-height:1.25;font-family:'Britannic Bold';-inkscape-font-specification:'Britannic Bold, ';stroke-width:0.716183" x="764.13251" y="190.14317" transform="scale(0.95026033,1.0523432)" id="text10"><tspan x="764.13251" y="190.14317" style="font-size:171.884px;stroke-width:0.716183" id="tspan8">APP</tspan></text></svg>