<svg xml:space="preserve" width="1080" height="256" xmlns="http://www.w3.org/2000/svg"><path d="M307.52 34.088c-15.035 0-27.223 13.497-27.223 30.147 0 4.176.768 8.155 2.155 11.772l-57.025 63.151a24.884 24.884 0 0 0-10.63-2.387c-3.773 0-7.366.851-10.632 2.387l-34.064-37.723a32.85 32.85 0 0 0 2.155-11.773c0-16.65-12.188-30.147-27.223-30.147-15.034 0-27.222 13.498-27.222 30.147 0 4.177.768 8.155 2.155 11.772l-57.026 63.15a24.884 24.884 0 0 0-10.63-2.386c-15.035 0-27.223 13.497-27.223 30.146 0 16.65 12.188 30.147 27.222 30.147s27.222-13.497 27.222-30.147a32.85 32.85 0 0 0-2.154-11.772l57.025-63.15a24.884 24.884 0 0 0 10.631 2.386c3.772 0 7.365-.85 10.63-2.386l34.065 37.724a32.85 32.85 0 0 0-2.154 11.772c0 16.65 12.188 30.147 27.222 30.147s27.222-13.498 27.222-30.147a32.85 32.85 0 0 0-2.154-11.772l57.025-63.152a24.884 24.884 0 0 0 10.63 2.387c15.035 0 27.223-13.498 27.223-30.147 0-16.65-12.188-30.146-27.222-30.146z"/><text xml:space="preserve" style="font-style:normal;font-weight:400;font-size:213.333px;line-height:1.75;font-family:sans-serif;fill:#000;fill-opacity:1;stroke:none" x="182.456" y="314.737" transform="matrix(.68056 0 0 .75367 236.18 -48.326)"><tspan x="182.456" y="314.737" style="font-style:normal;font-variant:normal;font-weight:400;font-stretch:normal;font-size:213.333px;font-family:Calibri;-inkscape-font-specification:Calibri">Integra</tspan></text><text xml:space="preserve" style="font-size:240px;line-height:1.25;font-family:'Britannic Bold';-inkscape-font-specification:'Britannic Bold, '" x="795.965" y="314.737" transform="matrix(.68056 0 0 .75367 236.18 -48.326)"><tspan x="795.965" y="314.737" style="font-size:240px">APP</tspan></text></svg>