<?xml version="1.0" encoding="UTF-8" standalone="no"?>
<!-- Generator: Adobe Illustrator 19.0.0, SVG Export Plug-In . SVG Version: 6.00 Build 0)  -->

<svg
   version="1.1"
   id="Layer_1"
   x="0px"
   y="0px"
   viewBox="0 0 1080 256"
   xml:space="preserve"
   sodipodi:docname="LogoAPP.svg"
   inkscape:version="1.1.2 (b8e25be833, 2022-02-05)"
   width="1080"
   height="256"
   xmlns:inkscape="http://www.inkscape.org/namespaces/inkscape"
   xmlns:sodipodi="http://sodipodi.sourceforge.net/DTD/sodipodi-0.dtd"
   xmlns="http://www.w3.org/2000/svg"
   xmlns:svg="http://www.w3.org/2000/svg"><defs
   id="defs37" /><sodipodi:namedview
   id="namedview35"
   pagecolor="#ffffff"
   bordercolor="#666666"
   borderopacity="1.0"
   inkscape:pageshadow="2"
   inkscape:pageopacity="0.0"
   inkscape:pagecheckerboard="0"
   showgrid="false"
   inkscape:zoom="0.43846154"
   inkscape:cx="210.96491"
   inkscape:cy="137.98246"
   inkscape:window-width="1920"
   inkscape:window-height="991"
   inkscape:window-x="-9"
   inkscape:window-y="-9"
   inkscape:window-maximized="1"
   inkscape:current-layer="Layer_1"
   inkscape:lockguides="true" />

<g
   id="g4">
</g>
<g
   id="g6">
</g>
<g
   id="g8">
</g>
<g
   id="g10">
</g>
<g
   id="g12">
</g>
<g
   id="g14">
</g>
<g
   id="g16">
</g>
<g
   id="g18">
</g>
<g
   id="g20">
</g>
<g
   id="g22">
</g>
<g
   id="g24">
</g>
<g
   id="g26">
</g>
<g
   id="g28">
</g>
<g
   id="g30">
</g>
<g
   id="g32">
</g>
<g
   id="g18363"
   transform="matrix(0.68055944,0,0,0.75366647,220.65868,-555.39839)"><g
     id="g5192"
     transform="translate(22.807017,672.80702)"><path
       d="m 104.82456,109.35111 c -22.090998,0 -39.999998,17.909 -39.999998,40 0,5.542 1.128,10.821 3.166,15.62 l -83.791,83.792 c -4.799,-2.038 -10.078,-3.167 -15.621,-3.167 -5.543,0 -10.822,1.129 -15.621,3.167 l -50.052996,-50.053 c 2.038,-4.799 3.166,-10.078 3.166,-15.621 0,-22.091 -17.908996,-40 -39.999996,-40 -22.091,0 -40,17.909 -40,40 0,5.542 1.128,10.821 3.166,15.62 l -83.792,83.791 c -4.799,-2.038 -10.078,-3.167 -15.621,-3.167 -22.091,0 -40,17.909 -40,40 0,22.091 17.909,40 40,40 22.091,0 40,-17.909 40,-40 0,-5.542 -1.128,-10.821 -3.166,-15.62 l 83.792,-83.791 c 4.799,2.038 10.078,3.166 15.621,3.166 5.542,0 10.821,-1.128 15.62,-3.166 l 50.053992,50.054 c -2.038,4.799 -3.166,10.078 -3.166,15.62 0,22.091 17.909,40 40,40 22.0909998,0 39.9999998,-17.909 39.9999998,-40 0,-5.542 -1.128,-10.821 -3.166,-15.62 l 83.7910002,-83.792 c 4.799,2.038 10.078,3.166 15.620998,3.166 22.09101,0 40.00001,-17.909 40.00001,-40 0,-22.091 -17.909,-39.999 -40.00001,-39.999 z"
       id="path2" /><text
       xml:space="preserve"
       style="font-style:normal;font-weight:normal;font-size:213.333px;line-height:1.75;font-family:sans-serif;fill:#000000;fill-opacity:1;stroke:none"
       x="182.45613"
       y="314.73685"
       id="text742"><tspan
         sodipodi:role="line"
         id="tspan740"
         x="182.45613"
         y="314.73685"
         style="font-style:normal;font-variant:normal;font-weight:normal;font-stretch:normal;font-size:213.333px;font-family:Calibri;-inkscape-font-specification:Calibri">Integra</tspan></text><text
       xml:space="preserve"
       style="font-size:240px;line-height:1.25;font-family:'Britannic Bold';-inkscape-font-specification:'Britannic Bold, '"
       x="795.96497"
       y="314.73685"
       id="text12684"><tspan
         sodipodi:role="line"
         id="tspan12682"
         x="795.96497"
         y="314.73685"
         style="font-size:240px">APP</tspan></text></g></g></svg>
