<?xml version="1.0" encoding="UTF-8" standalone="no"?>
<svg
   width="212.09769"
   height="276.13504"
   viewBox="0 0 211.9505 276.13504"
   version="1.1"
   id="svg62"
   sodipodi:docname="Inteegra_2-min.svg"
   xmlns:inkscape="http://www.inkscape.org/namespaces/inkscape"
   xmlns:sodipodi="http://sodipodi.sourceforge.net/DTD/sodipodi-0.dtd"
   xmlns="http://www.w3.org/2000/svg"
   xmlns:svg="http://www.w3.org/2000/svg">
  <sodipodi:namedview
     id="namedview64"
     pagecolor="#ffffff"
     bordercolor="#000000"
     borderopacity="0.25"
     inkscape:showpageshadow="2"
     inkscape:pageopacity="0.0"
     inkscape:pagecheckerboard="0"
     inkscape:deskcolor="#d1d1d1"
     showgrid="false" />
  <defs
     id="defs41" />
  <g
     id="surface1"
     transform="translate(-660.87103,-42.31422)">
    <path
       style="fill:#000000;fill-opacity:1;fill-rule:nonzero;stroke:none"
       d="m 737.53516,42.558594 c 0.0937,0.207031 0.0469,0.378906 -0.0977,0.378906 -0.14453,0 -0.19141,0.171875 -0.0977,0.414062 0.26563,0.582032 0.26563,7.851563 0.0234,7.851563 -0.11719,0 -0.11719,0.171875 -0.0234,0.414063 0.26563,0.585937 0.26563,7.851562 0.0234,7.851562 -0.11719,0 -0.11719,0.171875 -0.0234,0.414062 0.26563,0.585938 0.26563,7.851563 0.0234,7.851563 -0.11719,0 -0.11719,0.171875 -0.0234,0.414063 0.26563,0.585937 0.26563,7.855468 0,7.855468 -0.12109,0 -0.0937,0.207032 0.0234,0.410156 0.12109,0.242188 0.17188,2.445313 0.14453,4.925782 -0.0469,2.445312 -0.0703,4.6875 -0.0703,4.890625 v 8.097656 c 0,0.238281 0.0234,1.101563 0.0703,1.890625 0.0742,1.277344 0,1.484375 -0.40625,1.515625 -0.29297,0.03516 -0.72656,0.07031 -0.99219,0.105469 -0.26171,0 -0.67187,-0.07031 -0.89062,-0.242188 -0.24219,-0.136718 -0.43359,-0.136718 -0.43359,0 0,0.3125 -2.26563,0.277344 -2.62891,-0.06641 -0.14453,-0.105469 -0.26563,-0.105469 -0.26563,0.06641 0,0.136719 -0.69921,0.277344 -1.5664,0.277344 -0.86719,0 -1.56641,-0.140625 -1.56641,-0.277344 0,-0.171875 -0.0976,-0.171875 -0.24219,-0.06641 -0.38671,0.34375 -1.92968,0.410156 -1.92968,0.101562 0,-0.171874 -0.1211,-0.207031 -0.26563,-0.07031 -0.35937,0.3125 -6.33984,0.3125 -6.67969,0 -0.16796,-0.136719 -0.28906,-0.136719 -0.28906,0.03516 0,0.3125 -2.26562,0.277344 -2.6289,-0.06641 -0.14454,-0.105469 -0.26172,-0.105469 -0.26172,0.06641 0,0.136719 -0.70313,0.277344 -1.57032,0.277344 -0.86718,0 -1.5664,-0.140625 -1.5664,-0.277344 0,-0.171875 -0.0977,-0.171875 -0.24219,-0.06641 -0.38281,0.34375 -1.92969,0.410156 -1.92969,0.101562 0,-0.171874 -0.11718,-0.207031 -0.26172,-0.07031 -0.33984,0.3125 -5.3789,0.3125 -5.74218,0 -0.14453,-0.136719 -0.26172,-0.136719 -0.26172,0.03516 0,0.136719 -0.70313,0.277344 -1.57031,0.277344 -0.86719,0 -1.56641,-0.140625 -1.56641,-0.277344 0,-0.171875 -0.0977,-0.171875 -0.24219,-0.06641 -0.33594,0.308594 -1.92969,0.410156 -1.92969,0.136719 0,-0.136719 -0.35937,-0.105469 -0.8164,0.03516 -0.4375,0.136719 -0.99219,0.101563 -1.20703,-0.07031 -0.21875,-0.171874 -0.38672,-0.171874 -0.38672,0 0,0.171876 -0.45703,0.242188 -1.01172,0.171876 -0.57813,-0.07031 -1.20703,-0.136719 -1.39844,-0.101563 -2.07422,0.06641 -5.47265,0.06641 -5.66797,0 -0.12109,-0.03516 -0.28906,-0.07031 -0.35937,-0.03516 -0.33985,0.207031 -3.32813,0.101562 -3.54688,-0.07031 -0.14453,-0.136718 -0.3125,-0.136718 -0.38672,0 -0.21484,0.277344 -3.42187,0.277344 -3.76171,-0.03516 -0.14454,-0.136719 -0.26172,-0.136719 -0.26172,0.03516 0,0.3125 -2.26953,0.277344 -2.62891,-0.06641 -0.14453,-0.105469 -0.26562,-0.105469 -0.26562,0.06641 0,0.136719 -0.69922,0.277344 -1.56641,0.277344 -0.87109,0 -1.57031,-0.140625 -1.57031,-0.277344 0,-0.171875 -0.0937,-0.171875 -0.23828,-0.06641 -0.38672,0.34375 -1.92969,0.410156 -1.92969,0.101562 0,-0.171874 -0.1211,-0.207031 -0.26563,-0.07031 -0.24218,0.207031 -5.8125,0.347656 -6.36718,0.140625 -0.1211,-0.03516 -0.28907,-0.07031 -0.35938,-0.03516 -0.33984,0.207031 -3.32812,0.101562 -3.57031,-0.105469 -0.14453,-0.101562 -0.3125,-0.06641 -0.38672,0.07031 -0.0703,0.171876 -0.38672,0.242188 -0.67578,0.171876 l -0.55469,-0.136719 v 27.347663 c 0,15.08593 0.0742,27.51953 0.17188,27.62499 0.14453,0.20704 7.83593,0.34375 8.53515,0.13672 0.1211,-0.0352 0.33594,0 0.45703,0.0352 0.24219,0.0664 5.01563,0.0352 5.35547,-0.0352 0.11719,-0.0352 0.3125,0 0.4336,0.0352 0.23828,0.0664 5.01562,0.0352 5.375,-0.0352 0.0976,-0.0352 0.28906,0 0.41015,0.0352 0.24219,0.0664 5.01563,0.0352 5.35547,-0.0352 0.11719,-0.0352 0.3125,-0.0352 0.43359,0 0.33594,0.10157 26.23438,0.10157 26.52344,0.0352 0.14453,-0.0352 0.35938,-0.0352 0.48047,0 0.24219,0.0664 5.01563,0.0352 5.37891,-0.0352 0.0976,-0.0352 0.28906,-0.0352 0.41015,0.0352 0.3125,0.0664 8.875,0.0664 9.1875,-0.0352 0.1211,-0.0352 0.33594,0 0.45703,0.0352 0.24219,0.0664 5.01563,0.0352 5.37891,-0.0352 0.0937,-0.0352 0.28906,0 0.41016,0.0352 0.14453,0.0352 0.72265,0.10156 1.32422,0.10156 1.0625,0.0703 1.08593,0.10547 1.08593,1.27344 0,0.65625 -0.0976,1.41406 -0.21875,1.62109 -0.0937,0.24219 -0.12109,0.44532 0,0.44532 0.26563,0 0.26563,7.26953 0,7.85546 -0.0937,0.24219 -0.0937,0.41407 0.0234,0.41407 0.24219,0 0.24219,7.26562 -0.0234,7.85156 -0.0937,0.24219 -0.0937,0.41406 0.0234,0.41406 0.24219,0 0.24219,7.26563 -0.0234,7.85156 -0.0937,0.24219 -0.0937,0.41407 0.0234,0.41407 0.24219,0 0.24219,7.26953 -0.0234,7.85156 -0.0937,0.24219 -0.0937,0.41406 0.0234,0.41406 0.24219,0 0.24219,7.26953 -0.0234,7.85547 -0.0937,0.23828 -0.0937,0.41016 0.0234,0.41016 0.14453,0 0.24219,8.75 0.0977,10.05859 -0.0234,0.17188 -3.23047,0.24219 -13.76953,0.3125 h -46.29688 c -0.19141,0 -4.09766,-0.0352 -8.67969,-0.0703 l -8.32031,-0.0352 -0.0234,27.3125 c 0,15.05469 0.0508,27.55469 0.0977,27.76172 0.0469,0.24219 0.21875,0.34766 0.33594,0.24219 0.36328,-0.3086 4.53515,-0.37891 5.16015,-0.0703 0.28907,0.14062 0.60547,0.14062 0.67578,0.0351 0.19532,-0.27344 2.5586,-0.30859 2.5586,-0.0351 0,0.14062 0.28906,0.10546 0.67187,0 0.55469,-0.20313 2.82422,-0.27344 3.1836,-0.0664 0.3125,0.17187 1.44922,0.17187 1.44922,0 0,-0.24219 2.3125,-0.13672 2.625,0.13672 0.14453,0.13672 0.26562,0.13672 0.26562,-0.0352 0,-0.23828 3.18359,-0.30859 3.61719,-0.10156 0.14453,0.0664 1.44922,0.0352 2.77344,-0.10547 0.53125,-0.0664 1.20703,0 1.47265,0.14063 0.28906,0.13671 0.60156,0.17187 0.67578,0.0664 0.19141,-0.30859 2.55469,-0.30859 2.55469,-0.0351 0,0.14062 0.14453,0.17578 0.3125,0.0703 0.57813,-0.3086 2.12109,-0.34375 2.24219,-0.0703 0.0742,0.17578 0.24219,0.17578 0.38672,0.0703 0.24218,-0.20703 5.0625,-0.34375 5.61718,-0.13672 0.14454,0.0352 0.28907,0.0664 0.36329,0 0.35937,-0.17188 2.65234,-0.13672 2.65234,0.0664 0,0.14062 0.28906,0.10546 0.67578,0 0.55469,-0.20313 2.82031,-0.27344 3.18359,-0.0664 0.3125,0.17187 1.44532,0.17187 1.44532,0 0,-0.24219 2.3164,-0.13672 2.6289,0.13672 0.14453,0.13672 0.26563,0.13672 0.26563,-0.0352 0,-0.23828 3.18359,-0.30859 3.61719,-0.10156 0.14453,0.0664 1.44531,0.0352 2.77343,-0.10547 0.52735,-0.0664 1.20313,0 1.46875,0.14063 0.28907,0.13671 0.60157,0.17187 0.67578,0.0664 0.19141,-0.30859 2.55469,-0.30859 2.55469,-0.0351 0,0.14062 0.14453,0.17578 0.31641,0.0703 0.57812,-0.3086 2.12109,-0.34375 2.24219,-0.0703 0.0703,0.17578 0.23828,0.17578 0.38281,0.0703 0.24219,-0.20703 5.0664,-0.34375 5.62109,-0.13672 0.14453,0.0352 0.28906,0.0664 0.35938,0 0.36328,-0.17188 2.65234,-0.13672 2.65234,0.0664 0,0.14062 0.28906,0.10546 0.67578,0 0.55469,-0.20313 2.82031,-0.27344 3.1836,-0.0664 0.3125,0.17187 1.44531,0.17187 1.44531,0 0,-0.20703 1.20703,-0.24219 1.23047,0 0.12109,0.99609 0.0742,2.75391 -0.0977,2.75391 -0.0937,0 -0.11719,0.20703 -0.0234,0.41406 0.26563,0.62109 0.26563,4.82031 0,5.33984 -0.0937,0.23828 -0.12109,0.44531 0,0.44531 0.26563,0 0.26563,7.26954 0,7.85547 -0.0937,0.23828 -0.0937,0.41407 0.0234,0.41407 0.24219,0 0.24219,7.26562 -0.0234,7.85156 -0.0937,0.24219 -0.0937,0.41406 0.0234,0.41406 0.24219,0 0.24219,7.26563 -0.0234,7.85156 -0.0937,0.24219 -0.0937,0.41407 0.0234,0.41407 0.24219,0 0.21875,12.77734 -0.0234,13.36328 -0.0937,0.24218 -0.0937,0.41406 0.0234,0.41406 0.0977,0 0.19531,1.75781 0.17188,3.92578 v 3.96094 l 1.32421,-0.13672 c 0.75,-0.0703 1.35157,-0.17188 1.35157,-0.17188 0,0 0.60156,-0.10546 1.32422,-0.17187 1.54296,-0.17188 3.0625,-0.37891 5.42578,-0.75781 0.9414,-0.14063 1.97656,-0.24219 2.36328,-0.27735 0.36328,0 0.65234,-0.0664 0.65234,-0.17187 0,-0.10156 0.45703,-0.20703 0.98828,-0.27344 0.55469,-0.0352 2.62891,-0.58594 4.65235,-1.13672 2.0039,-0.58594 3.8125,-1.10547 4.0039,-1.17187 0.19141,-0.0352 0.53125,-0.17188 0.72266,-0.27735 0.19531,-0.10156 0.84375,-0.3789 1.44922,-0.58593 3.58984,-1.23829 10.34375,-4.64844 14.22656,-7.12891 2.36328,-1.51563 6.91797,-4.75391 7.23438,-5.13281 0.1914,-0.23828 0.52734,-0.48047 0.72265,-0.55078 0.19141,-0.0664 0.41016,-0.17188 0.48047,-0.3086 0.0742,-0.10547 1.10938,-1 2.29297,-2 2.09766,-1.78906 7.11328,-6.57812 7.73828,-7.40234 0.16797,-0.20703 0.91797,-1 1.64063,-1.72266 0.74609,-0.75781 1.35156,-1.48047 1.35156,-1.65234 0,-0.14063 0.11719,-0.27735 0.23828,-0.27735 0.14453,0 0.50781,-0.30859 0.79687,-0.72265 0.28907,-0.41406 0.89063,-1.13672 1.35157,-1.65235 1.83203,-2 6.67968,-8.75 9.35547,-12.98828 1.17968,-1.85937 4.09765,-6.92187 5.57031,-9.60937 1.71094,-3.13281 6.3164,-13.29297 6.3164,-13.94922 0,-0.17188 0.1211,-0.34375 0.26563,-0.34375 0.12109,0 0.16797,-0.13672 0.0977,-0.34375 -0.0742,-0.20703 -0.0508,-0.34375 0.0703,-0.34375 0.12109,0 0.28906,-0.27734 0.36328,-0.62109 0.0703,-0.3086 0.625,-1.85938 1.20312,-3.41016 0.60547,-1.55078 1.01563,-2.89453 0.94141,-2.99609 -0.0703,-0.10547 0,-0.20704 0.14453,-0.20704 0.16797,0 0.28906,-0.13671 0.28906,-0.30859 0,-0.17187 0.36329,-1.44922 0.82032,-2.85937 0.45703,-1.37891 1.0625,-3.375 1.35156,-4.41016 0.28906,-1.03125 0.67578,-2.375 0.84375,-2.92578 0.19141,-0.58594 0.55469,-2.03516 0.84375,-3.27344 0.26562,-1.23828 0.57812,-2.48047 0.65234,-2.75391 0.0703,-0.27734 0.16797,-0.58593 0.19141,-0.6914 0.0234,-0.10156 0.0977,-0.41406 0.19141,-0.6875 0.19531,-0.6875 1.39843,-6.99219 2.09765,-10.91797 l 0.55469,-3.16797 2.55859,-0.0352 c 3.375,-0.0703 3.32813,-0.0703 4.84766,-0.0352 1.54297,0.0352 5.03906,0.0703 5.49609,0.0703 0.4336,-0.0352 2.65235,-0.0352 3.01563,0 h 8.84765 c 0.45704,0 1.66407,-0.0352 2.65235,-0.0703 h 3.13672 c 2.43359,0.0352 5.18359,0.0703 5.54297,0.0352 h 4.33984 l -0.0469,-27.45312 -0.0703,-27.48438 -1.64062,-0.17187 c -0.89453,-0.10547 -1.61719,-0.10547 -1.61719,0 0,0.10156 -0.625,0.13672 -1.375,0.10156 -0.76953,-0.0352 -2,-0.0664 -2.72266,-0.0664 -4.96875,0 -7.08984,-0.0703 -7.25781,-0.24219 -0.12109,-0.10547 -0.21875,-0.0352 -0.21875,0.10156 0,0.17188 -0.625,0.24219 -1.375,0.20703 -0.76953,-0.0352 -2,-0.0664 -2.72266,-0.0664 -0.72265,-0.0352 -2.07421,-0.0352 -3.01562,-0.0352 -0.91406,0 -2.28906,0 -3.01172,0.0352 -0.72656,0.0312 -2.14844,0 -3.13672,0 -2.07422,-0.0703 -1.83203,-0.0703 -3.85937,-0.0703 -0.86719,0.0352 -1.73438,0.0352 -1.92578,0 h -4.10157 c -0.1914,0 -0.48047,0 -0.60156,0.0352 -0.55469,0.17187 -1.88281,0 -1.73828,-0.24219 0.0977,-0.10156 0.0508,-0.41406 -0.0937,-0.6875 -0.14453,-0.24219 -0.21875,-0.44922 -0.12109,-0.44922 0.0703,0 0.0234,-0.3789 -0.0977,-0.85937 -0.12109,-0.48438 -0.28906,-1.3125 -0.35938,-1.82813 -0.19531,-1.30859 -0.3164,-1.96093 -0.36328,-1.96093 -0.0234,0 -0.0742,-0.24219 -0.12109,-0.51954 -0.0234,-0.27343 -0.19141,-1.20312 -0.38672,-2.0664 -0.16797,-0.85938 -0.3125,-1.72266 -0.35937,-1.92578 -0.1211,-0.96485 -2.14844,-9.23438 -2.91797,-11.85157 -1.44922,-5.13281 -4.02735,-12.81249 -5.57032,-16.63671 -0.28906,-0.6875 -0.74609,-1.78907 -0.98828,-2.41016 -1.92968,-4.85547 -6.77734,-14.949221 -8.85156,-18.390627 -0.26562,-0.414063 -0.84375,-1.414063 -1.30078,-2.207031 -4.84766,-8.335938 -11.21094,-16.667969 -17.12109,-22.351563 -0.86719,-0.828125 -1.71094,-1.722656 -1.87891,-1.964843 -0.17188,-0.242188 -0.41016,-0.445313 -0.53125,-0.445313 -0.12109,0 -0.36328,-0.207031 -0.53125,-0.449219 -0.19141,-0.207031 -0.60156,-0.65625 -0.91406,-0.929687 -0.33985,-0.277344 -1.51953,-1.273438 -2.65625,-2.273438 -1.71094,-1.480469 -4.28907,-3.480469 -7.47266,-5.820312 -1.61719,-1.207031 -3.85937,-2.585938 -4.19531,-2.585938 -0.21875,0 -0.38672,-0.136719 -0.38672,-0.273437 0,-0.171875 -0.36328,-0.484375 -0.77344,-0.65625 -0.43359,-0.207032 -1.54297,-0.789063 -2.48047,-1.308594 -2.0039,-1.066406 -3.64062,-1.859375 -6.26953,-3.03125 -2.77344,-1.238281 -4.4375,-1.824219 -8.73047,-3.167969 -1.49609,-0.449219 -4.12109,-1.101562 -5.49609,-1.378906 -0.53125,-0.06641 -1.23047,-0.238281 -1.57031,-0.308594 -0.96094,-0.277343 -2.625,-0.515625 -4.69922,-0.757812 -1.0625,-0.101563 -2.36328,-0.273438 -2.89453,-0.308594 -0.53125,-0.07031 -1.76172,-0.242187 -2.75,-0.34375 -1.25391,-0.175781 -1.71094,-0.140625 -1.61328,0.136719 z"
       id="path43"
       sodipodi:nodetypes="cscscscscsccssccccscssscsccscssscsccssscsccscccccccscssscscccccccsccccccccccccccccccscscscscscscsccscccccccsccscsccccscccccsccscsccccscccccsccscsccscscscscscccccccsccccccccccccssscccsscscccsscccccccccccccscccccccscscsccsccccscccsccsccccccccccsccccsscccccccccc" />
  </g>
</svg>
