<?xml version="1.0" standalone="no"?>
<!DOCTYPE svg PUBLIC "-//W3C//DTD SVG 20010904//EN"
 "http://www.w3.org/TR/2001/REC-SVG-20010904/DTD/svg10.dtd">
<svg version="1.0" xmlns="http://www.w3.org/2000/svg"
 width="1840.000000pt" height="1840.000000pt" viewBox="0 0 1840.000000 1840.000000"
 preserveAspectRatio="xMidYMid meet">
<metadata>
Created by potrace 1.14, written by Peter Selinger 2001-2017
</metadata>
<g transform="translate(0.000000,1840.000000) scale(0.100000,-0.100000)"
fill="#000000" stroke="none">
<path d="M8306 13203 c-4 -4 -449 -8 -989 -9 -1352 -3 -1985 -14 -2257 -39
-47 -4 -97 -13 -240 -39 -14 -2 -54 -12 -90 -21 -36 -8 -74 -18 -85 -20 -42
-10 -241 -66 -260 -74 -11 -5 -81 -30 -155 -56 -74 -26 -164 -61 -200 -77
-168 -76 -246 -113 -260 -123 -8 -6 -34 -20 -57 -30 -24 -10 -43 -21 -43 -25
0 -5 -12 -11 -27 -15 -15 -3 -30 -10 -33 -13 -8 -11 -110 -72 -121 -72 -5 0
-9 -4 -9 -10 0 -5 -4 -10 -10 -10 -5 0 -35 -17 -66 -37 -31 -21 -64 -42 -72
-48 -19 -13 -23 -15 -157 -115 -60 -46 -117 -90 -126 -99 -9 -9 -38 -34 -65
-56 -26 -22 -68 -59 -91 -82 -24 -23 -43 -40 -43 -38 0 2 -150 -151 -210 -215
-23 -25 -110 -128 -134 -158 -11 -15 -31 -38 -43 -52 -29 -33 -55 -70 -163
-230 -50 -74 -96 -143 -102 -152 -55 -80 -264 -489 -256 -501 1 -1 -5 -13 -12
-27 -8 -14 -15 -30 -16 -35 -1 -6 -11 -31 -22 -55 -18 -41 -70 -181 -76 -205
-2 -5 -6 -17 -9 -25 -8 -20 -59 -190 -61 -204 -1 -6 -5 -17 -9 -23 -5 -7 -6
-13 -3 -13 2 0 -2 -24 -10 -52 -19 -67 -24 -87 -30 -118 -7 -31 -22 -40 -50
-30 -12 5 -24 6 -27 3 -3 -2 -34 -4 -69 -4 -35 1 -70 1 -78 2 -16 0 -132 0
-165 -1 -11 0 -58 0 -105 1 -47 0 -92 0 -100 0 -60 -4 -263 0 -271 5 -5 3 -9
1 -9 -3 0 -5 -26 -7 -57 -5 -32 2 -65 3 -73 3 -8 0 -60 0 -115 0 -55 0 -107 0
-115 0 -8 -1 -62 -1 -120 0 -58 0 -112 0 -120 0 -8 0 -59 -1 -112 -1 l-98 0 0
-801 0 -800 37 1 c21 0 45 0 53 0 8 -1 87 -1 175 -1 88 0 176 0 195 0 19 0 69
1 110 2 41 0 100 0 130 0 84 -1 214 -2 228 -2 18 1 110 1 125 0 6 0 84 0 172
0 88 0 176 0 195 0 19 0 67 1 105 2 159 2 150 5 164 -51 7 -27 14 -57 16 -67
2 -10 4 -18 5 -18 1 0 3 -7 5 -15 1 -8 8 -35 15 -60 7 -25 13 -49 14 -55 1 -5
5 -19 8 -30 4 -11 21 -67 38 -125 18 -58 37 -111 42 -117 6 -7 8 -13 5 -13 -5
0 67 -192 80 -214 4 -6 8 -16 9 -22 5 -31 179 -358 251 -471 18 -29 33 -56 32
-59 0 -4 3 -10 8 -13 4 -3 30 -40 58 -81 27 -41 53 -76 57 -78 4 -2 8 -8 8
-13 0 -5 25 -42 55 -82 71 -93 65 -86 103 -132 84 -101 100 -119 140 -161 24
-24 41 -44 39 -44 -6 0 185 -186 252 -247 30 -26 62 -55 71 -63 9 -8 32 -27
52 -42 20 -15 42 -33 50 -40 7 -7 40 -33 73 -58 33 -25 62 -48 63 -52 2 -5 8
-8 13 -8 8 0 109 -70 146 -100 7 -5 14 -10 17 -10 2 0 31 -17 63 -38 32 -21
74 -47 93 -58 19 -10 37 -21 40 -24 9 -9 336 -180 343 -179 1 0 29 -12 62 -26
96 -41 134 -57 210 -86 33 -13 65 -24 70 -26 6 -1 56 -18 113 -37 56 -20 113
-38 125 -40 12 -3 46 -12 76 -21 30 -9 62 -18 70 -20 9 -2 48 -10 86 -19 92
-19 241 -37 340 -40 17 -1 33 -5 37 -11 5 -6 8 -5 8 3 0 7 4 11 9 7 26 -15
699 -25 2701 -39 218 -1 401 -6 408 -10 7 -4 12 -4 12 1 0 9 103 8 119 -1 6
-4 11 -4 11 1 0 4 20 8 45 8 25 0 45 -2 45 -5 0 -8 280 -4 288 4 8 9 11 1583
2 1594 -8 10 -119 9 -113 -2 4 -5 1 -6 -5 -2 -18 11 -91 13 -85 2 4 -5 1 -6
-6 -1 -16 9 -238 11 -247 2 -4 -4 -11 -4 -17 0 -16 10 -126 9 -119 -1 3 -5 0
-6 -6 -2 -18 11 -91 13 -85 2 4 -5 1 -6 -6 -1 -11 6 -217 11 -246 5 -5 -1 -14
-1 -20 0 -31 6 -107 5 -111 -2 -3 -5 -10 -5 -16 -2 -10 6 -108 8 -208 5 -19
-1 -91 -1 -160 0 -69 1 -141 1 -160 0 -19 -1 -91 -1 -160 0 -69 1 -141 1 -160
0 -19 -1 -91 -1 -160 0 -69 1 -141 1 -160 0 -19 -1 -72 0 -117 1 -46 2 -79 -1
-76 -6 4 -5 0 -6 -6 -1 -16 9 -233 11 -248 2 -6 -4 -13 -4 -17 0 -10 10 -125
9 -118 -1 3 -5 0 -6 -6 -2 -17 10 -92 13 -92 3 0 -4 -5 -5 -11 -1 -18 11 -229
10 -233 -1 -16 -43 -21 135 -20 814 0 430 4 784 7 787 4 4 59 6 124 5 65 -1
123 -2 128 -2 6 0 82 0 170 0 88 0 176 0 195 0 19 0 69 1 110 2 41 0 100 0
130 0 84 -1 214 -2 228 -2 18 1 110 1 125 0 6 0 84 0 172 0 88 0 176 0 195 0
19 0 69 1 110 2 41 0 100 0 130 0 84 -1 214 -2 228 -2 18 1 110 1 125 0 6 0
84 0 172 0 88 0 176 0 195 0 19 0 69 1 110 2 41 0 100 0 130 0 210 -2 221 -2
330 1 l85 3 1 790 c0 481 -3 795 -9 802 -5 7 -14 10 -20 6 -13 -8 -255 -6
-268 3 -5 3 -9 1 -9 -3 0 -5 -26 -7 -57 -5 -32 2 -65 3 -73 3 -8 0 -60 0 -115
0 -55 0 -107 0 -115 0 -71 -3 -264 0 -271 5 -5 3 -9 1 -9 -3 0 -5 -26 -7 -57
-6 -32 1 -83 2 -113 2 -206 0 -294 2 -301 7 -5 3 -9 1 -9 -3 0 -5 -26 -7 -57
-6 -32 1 -83 2 -113 2 -206 0 -294 2 -301 7 -5 3 -9 1 -9 -3 0 -5 -26 -7 -57
-6 -32 1 -83 2 -113 2 -30 1 -86 1 -125 1 -38 0 -95 0 -125 -1 -30 -1 -61 -1
-67 0 -7 1 -21 1 -30 1 -10 0 -73 0 -141 0 -68 0 -128 2 -133 6 -5 3 -9 1 -9
-3 0 -5 -26 -7 -57 -6 -32 1 -83 2 -113 2 -30 1 -89 1 -130 1 -41 0 -97 0
-123 0 -27 0 -52 -2 -57 -5 -4 -3 -10 1 -12 8 -3 10 -2 1522 1 1579 1 13 12
16 61 15 33 -1 60 2 60 6 0 5 5 5 11 2 15 -10 129 -11 129 -2 0 4 8 4 17 -2
10 -5 26 -5 40 0 13 5 23 5 23 1 0 -4 40 -7 89 -7 51 0 87 4 83 9 -3 5 1 6 7
1 16 -9 161 -12 161 -3 0 4 7 5 15 2 25 -10 144 -10 138 0 -4 5 0 6 6 1 17
-10 161 -12 161 -2 0 5 5 5 11 1 14 -9 272 -10 286 -1 7 4 14 3 17 -2 4 -6 18
-6 36 -1 17 5 30 6 30 2 0 -4 36 -7 80 -7 44 0 80 4 80 8 0 4 8 4 17 -2 10 -5
26 -5 40 0 13 5 23 5 23 1 0 -4 40 -7 89 -7 51 0 87 4 83 9 -3 5 1 6 7 1 17
-10 161 -12 161 -2 0 5 5 5 11 1 14 -9 272 -10 286 -1 7 4 14 3 17 -2 4 -6 18
-6 36 -1 17 5 30 6 30 2 0 -9 142 -8 157 1 6 4 14 3 17 -2 4 -6 18 -6 36 -1
17 5 30 6 30 2 0 -9 304 -7 318 2 6 3 13 2 16 -3 4 -6 18 -6 36 -1 17 5 30 6
30 2 0 -9 142 -8 157 1 6 4 14 3 18 -3 4 -6 13 -7 23 -1 16 9 18 63 17 803 l0
793 -32 -1 c-18 0 -33 4 -33 8 0 5 -8 4 -18 -1 -13 -7 -23 -6 -30 1 -7 7 -12
8 -12 2 0 -12 -213 -12 -222 1 -5 7 -8 6 -8 0 0 -12 -108 -14 -126 -2 -6 3
-14 3 -18 0z"/>
<path d="M12804 13201 c4 -6 2 -11 -4 -11 -6 0 -8 -5 -4 -12 11 -17 11 -228 1
-228 -5 0 -5 -5 -1 -12 11 -17 11 -228 1 -228 -5 0 -5 -5 -1 -12 11 -17 11
-228 1 -228 -5 0 -5 -5 -1 -12 11 -17 11 -228 0 -228 -5 0 -4 -6 1 -12 5 -7 7
-71 6 -143 -2 -71 -3 -136 -3 -142 0 -87 0 -226 0 -235 0 -7 1 -32 3 -55 3
-37 0 -43 -17 -44 -12 -1 -30 -2 -41 -3 -11 0 -28 2 -37 7 -10 4 -18 4 -18 0
0 -9 -94 -8 -109 2 -6 3 -11 3 -11 -2 0 -4 -29 -8 -65 -8 -36 0 -65 4 -65 8 0
5 -4 5 -10 2 -16 -10 -80 -12 -80 -3 0 5 -5 6 -11 2 -15 -9 -263 -9 -277 0 -7
4 -12 4 -12 -1 0 -9 -94 -8 -109 2 -6 3 -11 3 -11 -2 0 -4 -29 -8 -65 -8 -36
0 -65 4 -65 8 0 5 -4 5 -10 2 -16 -10 -80 -12 -80 -3 0 5 -5 6 -11 2 -14 -9
-223 -9 -238 0 -6 4 -11 4 -11 -1 0 -4 -29 -8 -65 -8 -36 0 -65 4 -65 8 0 5
-4 5 -10 2 -14 -9 -80 -12 -80 -4 0 4 -15 3 -34 -1 -18 -4 -41 -3 -50 2 -9 5
-16 5 -16 0 0 -5 -19 -7 -42 -5 -24 2 -50 4 -58 3 -86 -2 -227 -2 -235 0 -5 1
-12 2 -15 1 -14 -6 -138 -3 -147 2 -6 4 -13 4 -16 0 -9 -8 -142 -8 -156 1 -6
4 -11 4 -11 -1 0 -9 -94 -8 -109 2 -6 3 -11 3 -11 -2 0 -4 -29 -8 -65 -8 -36
0 -65 4 -65 8 0 5 -4 5 -10 2 -16 -10 -80 -12 -80 -3 0 5 -5 6 -11 2 -10 -6
-241 -10 -264 -4 -5 1 -12 2 -15 1 -14 -6 -138 -3 -148 3 -6 3 -13 2 -16 -2
-3 -5 -16 -7 -28 -5 l-23 4 0 -794 c0 -438 3 -799 7 -802 6 -6 325 -10 354 -4
5 1 14 0 19 -1 10 -2 208 -1 222 1 5 1 13 0 18 -1 10 -2 208 -1 223 1 4 1 12
0 17 -1 10 -2 208 -1 222 1 5 1 13 1 18 0 14 -3 1088 -3 1100 -1 6 1 15 1 20
0 10 -2 208 -1 223 1 4 1 12 1 17 -1 13 -2 368 -2 381 1 5 1 14 0 19 -1 10 -2
208 -1 223 1 4 1 12 0 17 -1 6 -1 30 -3 55 -3 44 -2 45 -3 45 -37 0 -19 -4
-41 -9 -47 -4 -7 -5 -13 0 -13 11 0 11 -211 0 -228 -4 -7 -4 -12 1 -12 10 0
10 -211 -1 -228 -4 -7 -4 -12 1 -12 10 0 10 -211 -1 -228 -4 -7 -4 -12 1 -12
10 0 10 -211 -1 -228 -4 -7 -4 -12 1 -12 10 0 10 -211 -1 -228 -4 -7 -4 -12 1
-12 6 0 10 -254 4 -292 -1 -5 -134 -7 -571 -9 -8 0 -224 0 -480 0 -256 0 -472
0 -480 0 -8 0 -224 0 -480 0 -256 0 -472 0 -480 0 -8 0 -170 1 -360 2 l-345 1
-1 -793 c0 -437 2 -800 4 -806 2 -7 9 -10 14 -7 15 9 188 11 214 2 12 -4 25
-4 28 -1 8 8 106 9 106 1 0 -4 12 -3 28 0 23 6 117 8 132 2 13 -5 60 -5 60 0
0 7 96 4 109 -4 6 -4 11 -4 11 1 0 7 132 9 150 3 6 -2 60 -1 115 3 22 2 50 0
61 -4 12 -4 25 -5 28 -2 8 9 106 9 106 1 0 -4 6 -5 13 -2 24 9 88 10 93 2 3
-5 10 -5 16 -2 10 6 210 10 233 4 6 -1 12 -2 15 0 15 5 110 4 110 -2 0 -4 12
-3 28 0 23 6 117 8 132 2 13 -5 60 -5 60 0 0 7 96 4 109 -4 6 -4 11 -4 11 1 0
7 132 9 150 3 6 -2 60 -1 115 3 22 2 50 0 61 -4 12 -4 25 -5 28 -2 8 9 106 9
106 1 0 -4 6 -5 13 -2 24 9 88 10 93 2 3 -5 10 -5 16 -2 10 6 210 10 233 4 6
-1 12 -2 15 0 15 5 110 4 110 -2 0 -4 12 -3 28 0 23 6 117 8 132 2 13 -5 60
-5 60 0 0 6 50 7 51 0 5 -29 3 -80 -4 -80 -4 0 -5 -6 -1 -12 11 -18 11 -140 0
-155 -4 -7 -5 -13 0 -13 11 0 11 -211 0 -228 -4 -7 -4 -12 1 -12 10 0 10 -211
-1 -228 -4 -7 -4 -12 1 -12 10 0 10 -211 -1 -228 -4 -7 -4 -12 1 -12 10 0 9
-371 -1 -388 -4 -7 -4 -12 1 -12 4 0 8 -51 7 -114 l0 -115 55 4 c31 2 56 5 56
5 0 0 25 3 55 5 64 5 127 11 225 22 39 4 82 7 98 8 15 0 27 2 27 5 0 3 19 6
41 8 23 1 109 17 193 33 83 17 158 32 166 34 8 1 22 5 30 8 8 3 35 11 60 17
149 36 429 135 590 207 98 44 287 138 300 149 8 7 22 14 30 16 8 2 17 5 20 9
3 3 46 29 95 58 87 52 295 191 321 215 7 6 38 29 68 50 31 22 56 43 56 48 0 4
5 8 10 8 6 0 21 9 33 21 12 12 37 33 56 48 76 58 277 254 388 377 49 54 170
201 231 279 71 91 262 386 262 405 0 5 5 10 11 10 5 0 7 4 4 10 -3 6 -2 10 3
10 5 0 12 8 15 18 3 9 26 54 50 99 25 45 42 84 39 87 -3 3 0 6 6 6 7 0 12 4
12 9 0 5 15 42 34 83 19 40 44 98 56 128 12 30 28 69 35 85 8 17 23 59 35 95
11 36 24 72 27 80 3 8 7 17 8 20 1 3 4 12 8 20 8 20 58 203 87 317 l23 92 106
1 c140 2 138 2 201 1 64 -1 209 -2 228 -2 18 1 110 1 125 0 6 0 84 0 172 0 88
0 176 0 195 0 19 0 69 1 110 2 41 0 100 0 130 0 101 -1 215 -2 230 -1 8 0 52
0 98 0 l82 0 -2 797 -3 798 -68 5 c-37 3 -67 3 -67 0 0 -3 -26 -4 -57 -3 -32
1 -83 2 -113 2 -206 0 -294 2 -301 7 -5 3 -9 1 -9 -3 0 -5 -26 -7 -57 -6 -32
1 -83 2 -113 2 -30 1 -86 1 -125 1 -38 0 -95 0 -125 -1 -30 -1 -89 0 -130 0
-86 2 -76 2 -160 2 -36 -1 -72 -1 -80 0 -8 0 -46 0 -85 0 -38 0 -77 0 -85 0
-8 0 -20 0 -25 -1 -23 -5 -78 0 -72 7 4 3 2 12 -4 20 -6 7 -9 13 -5 13 3 0 1
11 -4 25 -5 14 -12 38 -15 53 -8 38 -13 57 -15 57 -1 0 -3 7 -5 15 -1 8 -8 35
-16 60 -7 25 -13 50 -15 56 -5 28 -89 268 -121 344 -60 149 -167 372 -231 483
-12 20 -31 52 -41 70 -80 141 -281 434 -367 534 -11 12 -35 41 -54 64 -201
242 -465 484 -710 649 -36 24 -71 50 -78 57 -7 7 -17 13 -22 13 -5 0 -15 6
-22 13 -8 6 -25 19 -38 27 -14 8 -63 37 -110 66 -71 43 -178 101 -310 169 -67
35 -160 75 -174 75 -9 0 -16 4 -16 8 0 5 -15 14 -32 19 -18 6 -64 23 -103 38
-83 31 -151 54 -260 88 -115 36 -184 53 -362 92 -62 13 -171 32 -228 40 -22 2
-51 7 -65 9 -40 8 -109 15 -195 22 -44 3 -98 8 -120 9 -22 2 -73 7 -114 10
-52 5 -71 4 -67 -4z"/>
</g>
</svg>
